<?xml version="1.0" standalone="no"?>
<!DOCTYPE svg PUBLIC "-//W3C//DTD SVG 20010904//EN"
 "http://www.w3.org/TR/2001/REC-SVG-20010904/DTD/svg10.dtd">
<svg version="1.0" xmlns="http://www.w3.org/2000/svg"
 width="512.000000pt" height="512.000000pt" viewBox="0 0 512.000000 512.000000"
 preserveAspectRatio="xMidYMid meet">
<metadata>
Created by potrace 1.14, written by Peter Selinger 2001-2017
</metadata>
<g transform="translate(0.000000,512.000000) scale(0.100000,-0.100000)"
fill="#000000" stroke="none">
<path d="M415 5110 c-183 -38 -330 -170 -391 -350 -18 -53 -19 -134 -19 -2200
0 -2066 1 -2147 19 -2200 52 -154 168 -274 322 -332 l59 -23 2155 0 2155 0 59
23 c154 58 270 178 322 332 18 53 19 134 19 2200 0 2066 -1 2147 -19 2200 -52
154 -168 274 -322 332 l-59 23 -2130 1 c-1172 1 -2148 -2 -2170 -6z m2220
-931 c385 -47 715 -233 890 -502 120 -186 168 -344 168 -557 -1 -383 -180
-753 -500 -1033 -149 -130 -363 -257 -543 -322 -94 -33 -238 -66 -245 -55 -3
5 59 42 137 82 168 85 402 239 508 333 269 238 450 556 491 862 46 346 -110
700 -393 891 -204 138 -445 213 -728 228 -112 6 -312 -6 -377 -23 -45 -11 -22
16 31 36 173 65 359 85 561 60z m90 -168 c103 -28 264 -105 360 -172 89 -61
216 -193 264 -272 132 -222 145 -500 35 -767 -40 -98 -154 -261 -154 -220 0 7
17 54 39 104 47 112 51 127 61 246 10 109 -2 269 -26 368 -31 126 -67 188
-173 292 -147 145 -327 242 -516 278 -115 21 -454 20 -599 -2 -151 -24 -318
-68 -400 -105 -94 -43 -109 -40 -61 10 104 107 362 209 640 254 139 22 426 14
530 -14z m-175 -216 c215 -38 356 -102 470 -215 224 -219 269 -544 118 -845
-161 -320 -472 -600 -963 -867 -154 -84 -373 -194 -402 -203 -38 -11 -26 8 33
50 77 55 91 79 114 188 31 151 65 279 175 657 157 539 178 631 201 894 3 37 9
64 14 60 4 -5 16 -34 26 -64 25 -73 25 -288 0 -450 -30 -198 -112 -539 -266
-1098 -8 -32 -6 -31 133 64 273 187 413 300 547 441 319 337 426 674 296 933
-87 174 -264 283 -551 340 -112 23 -305 38 -305 24 0 -5 5 -29 11 -54 36 -157
27 -405 -22 -589 -62 -235 -252 -768 -326 -919 -56 -113 -59 -50 -11 232 16
99 39 212 49 250 92 337 138 566 178 884 27 208 27 202 -4 202 -23 0 -25 -3
-25 -52 -1 -224 -65 -505 -230 -1013 -131 -404 -172 -588 -192 -863 -21 -288
18 -566 106 -757 40 -86 42 -111 7 -74 -126 133 -218 372 -241 631 -26 287 27
579 230 1258 160 540 188 643 215 818 7 41 6 43 -17 38 -12 -3 -61 -13 -108
-22 -47 -9 -144 -34 -217 -55 -136 -40 -163 -45 -163 -30 0 14 184 105 281
139 96 34 245 68 359 82 107 13 368 5 480 -15z m240 -1704 c0 -21 -177 -174
-262 -226 -127 -79 -301 -163 -445 -215 l-123 -44 -14 -45 c-8 -26 -22 -75
-31 -111 -31 -126 -36 -140 -45 -140 -6 0 -10 53 -10 130 l0 130 -35 -17 c-46
-22 -49 -38 -41 -189 6 -127 37 -271 77 -372 36 -88 4 -83 -58 11 -84 127
-107 208 -107 389 -1 113 1 129 20 155 16 21 82 55 270 139 143 64 321 153
419 210 178 103 365 203 378 204 4 0 7 -4 7 -9z"/>
</g>
</svg>
